<svg xmlns="http://www.w3.org/2000/svg" viewBox="0 0 1180 610" width="100%" height="100%">
  <defs>
    <!-- Background Gradient & Glows -->
    <radialGradient id="dark-bg-glow" cx="20%" cy="30%" r="60%">
      <stop offset="0%" stop-color="#FFFFFF" stop-opacity="0.04" />
      <stop offset="100%" stop-color="#09090B" stop-opacity="0" />
    </radialGradient>
    <radialGradient id="dark-corner-glow" cx="90%" cy="80%" r="50%">
      <stop offset="0%" stop-color="#A1A1AA" stop-opacity="0.05" />
      <stop offset="100%" stop-color="#09090B" stop-opacity="0" />
    </radialGradient>

    <!-- Surfaces & Glass Gradients -->
    <linearGradient id="dark-panel-grad" x1="0" y1="0" x2="1" y2="1">
      <stop offset="0%" stop-color="#18181B" stop-opacity="0.75" />
      <stop offset="100%" stop-color="#111113" stop-opacity="0.85" />
    </linearGradient>
    <linearGradient id="border-shimmer-dark" x1="0" y1="0" x2="1" y2="0">
      <stop offset="0%" stop-color="rgba(255,255,255,0.03)" />
      <stop offset="50%" stop-color="rgba(255,255,255,0.22)" />
      <stop offset="100%" stop-color="rgba(255,255,255,0.03)" />
    </linearGradient>

    <!-- Text Gradients -->
    <linearGradient id="dark-ascii-grad" x1="0" y1="0" x2="0" y2="1">
      <stop offset="0%" stop-color="#FFFFFF" />
      <stop offset="50%" stop-color="#E4E4E7" />
      <stop offset="100%" stop-color="#A1A1AA" />
      <animate attributeName="y2" values="0.8; 1.2; 0.8" dur="8s" repeatCount="indefinite" />
    </linearGradient>
    <linearGradient id="dark-accent-grad" x1="0" y1="0" x2="1" y2="0">
      <stop offset="0%" stop-color="#FAFAFA" />
      <stop offset="50%" stop-color="#D4D4D8" />
      <stop offset="100%" stop-color="#71717A" />
      <animate attributeName="x1" values="0; 1; 0" dur="6s" repeatCount="indefinite" />
    </linearGradient>

    <!-- Shadows & Filters -->
    <filter id="soft-glow-dark" x="-20%" y="-20%" width="140%" height="140%">
      <feGaussianBlur stdDeviation="12" result="blur" />
      <feComposite in="SourceGraphic" in2="blur" operator="over" />
    </filter>
    <filter id="glass-blur-dark">
      <feGaussianBlur stdDeviation="20" />
      <feColorMatrix type="matrix" values="1 0 0 0 0  0 1 0 0 0  0 0 1 0 0  0 0 0 18 -7" />
    </filter>

    <!-- Noise Pattern -->
    <pattern id="noise" width="100" height="100" patternUnits="userSpaceOnUse">
      <filter id="noiseFilter">
        <feTurbulence type="fractalNoise" baseFrequency="0.8" numOctaves="3" stitchTiles="stitch"/>
      </filter>
      <rect width="100" height="100" filter="url(#noiseFilter)" opacity="0.025" />
    </pattern>

    <!-- Clip Paths -->
    <clipPath id="canvas-clip">
      <rect width="1180" height="610" rx="20" />
    </clipPath>
  </defs>

  <!-- Base Background -->
  <rect width="1180" height="610" rx="20" fill="#09090B" />
  <rect width="1180" height="610" rx="20" fill="url(#dark-bg-glow)" />
  <rect width="1180" height="610" rx="20" fill="url(#dark-corner-glow)" />
  <rect width="1180" height="610" rx="20" fill="url(#noise)" />

  <g clip-path="url(#canvas-clip)">
    <!-- Ambient Floating Orbs -->
    <circle cx="200" cy="150" r="180" fill="rgba(255,255,255,0.015)" filter="url(#soft-glow-dark)">
      <animateTransform attributeName="transform" type="translate" values="0,0; 25,15; 0,0" dur="12s" repeatCount="indefinite" />
    </circle>
    <circle cx="950" cy="480" r="140" fill="rgba(255,255,255,0.02)" filter="url(#soft-glow-dark)">
      <animateTransform attributeName="transform" type="translate" values="0,0; -20,-25; 0,0" dur="15s" repeatCount="indefinite" />
    </circle>

    <!-- ==================== LEFT SIDE (38% -> width 420px, x: 30 to 450) ==================== -->
    <g transform="translate(35, 35)">
      <!-- Panel Base -->
      <rect width="410" height="540" rx="14" fill="url(#dark-panel-grad)" stroke="rgba(255,255,255,0.08)" stroke-width="1"/>
      <rect width="410" height="540" rx="14" fill="none" stroke="url(#border-shimmer-dark)" stroke-width="1.5">
        <animate attributeName="opacity" values="0.4; 1; 0.4" dur="4s" repeatCount="indefinite" />
      </rect>

      <!-- Scanline Overlay -->
      <line x1="15" y1="0" x2="395" y2="0" stroke="rgba(255,255,255,0.12)" stroke-width="1">
        <animate attributeName="y1" values="15; 525; 15" dur="5s" repeatCount="indefinite" />
        <animate attributeName="y2" values="15; 525; 15" dur="5s" repeatCount="indefinite" />
        <animate attributeName="opacity" values="0.8;0;0.8" dur="5s" repeatCount="indefinite" />
      </line>

      <!-- Floating ASCII Container -->
      <g>
        <animateTransform attributeName="transform" type="translate" values="0,0; 0,-6; 0,0" dur="7s" repeatCount="indefinite" />
        
        <!-- ASCII Portrait generated from uploaded image -->
<text
  x="35"
  y="65"
  font-family="ui-monospace,SFMono-Regular,Menlo,Monaco,monospace"
  font-size="10"
  font-weight="1000"
  fill="url(#dark-ascii-grad)"
  letter-spacing="1.00">

<tspan x="35" dy="0">                                                     </tspan>
<tspan x="35" dy="11">....................................................</tspan>
<tspan x="35" dy="11">..................###%%%%%%%#.......................</tspan>
<tspan x="35" dy="11">...............##%%@%%@@@@@@@%#.....................</tspan>
<tspan x="35" dy="11">..............#%@@@@@@@@@@@@@@@%#...................</tspan>
<tspan x="35" dy="11">..............%@@@@@@@@@@@@@@@@@@#..................</tspan>
<tspan x="35" dy="11">..............%@@@@@@@@@@@@@@@@@@%..................</tspan>
<tspan x="35" dy="11">.............%@@@@@@@@%%%@@@@@#**%..................</tspan>
<tspan x="35" dy="11">..............@@@@@@@%###%%%%%@@@%..............###.</tspan>
<tspan x="35" dy="11">...............#%%@@%###%@@@@%%@@@%...%@@@@@%+***++.</tspan>
<tspan x="35" dy="11">.................%%%%#**#@@@@%*#%.....%%@@@%%%@@%%%.</tspan>
<tspan x="35" dy="11">.................*#%%%###%%%%#%##.....%%%%%%++**++*.</tspan>
<tspan x="35" dy="11">...................*#@@%%###%@@%#.....#%%%%%%%@%%%%.</tspan>
<tspan x="35" dy="11">.....................%@@@@%%%%%%%#*..............*#.</tspan>
<tspan x="35" dy="11">.....................#@@@@@@@%%@@@%%#...............</tspan>
<tspan x="35" dy="11">...............*+*#%--*%%%%*==*@@@@@@@%%%%..........</tspan>
<tspan x="35" dy="11">.............+*#**#%%=:-*##%*=+@@@@@@@@@@@@@@@@.....</tspan>
<tspan x="35" dy="11">.........###%%%%%%%%==+#@@@#*%@@@@@@@@@@@@@@@@@.....</tspan>
<tspan x="35" dy="11">.......%%%%%%#%%%%%%=--=%@*=#@@@@@@@@@@@@@@@@@@@@...</tspan>
<tspan x="35" dy="11">......%@%%%%%%%%%%%@+::*@@**@@@@@@@@@@@@@@@@@@@@@@..</tspan>
<tspan x="35" dy="11">......@@@%%%%%%%%%%@#--@@@@@@@@@@@@@@@@@@@@@@@@@@@@.</tspan>
<tspan x="35" dy="11">.....%@@@@%%%%%%%%%%%=+@@@@@@@@@@@@@@@@@@@@@@@@@@@@.</tspan>
<tspan x="35" dy="11">.....%@@@@@@@@@@%%%@@#*@@@@@@@@@@@@@@@@@@@@@@@@@@@@.</tspan>
<tspan x="35" dy="11">....%@@@@@@@@@@@@@@@@%%@@@@@@@@@@@@@@@@@@@@@@@@@@@@.</tspan>
<tspan x="35" dy="11">....%%@@@@@@@@@@@@@@@@@@@@@@@@@@@@@@%%@@@@@@%@@@@@@.</tspan>
<tspan x="35" dy="11">....%@@@@@@%@@@@@@@@@@@@@@@@@@@@@@@@@@@@@@@%..@@@@@.</tspan>
<tspan x="35" dy="11">...%@@@@@@@@@@@@@@@@@@@@@@@@@@@@@@@@@@@@@@%....%@@@.</tspan>
<tspan x="35" dy="11">...%@@@@@@@@@@@@@@@@@@@@@@@@@@@@@@@@@@@@@@.......%@.</tspan>
<tspan x="35" dy="11">..%%@@@@@@@@%@@@@@@@@@@@@@@@@@@@@@@@@@@@@@........%.</tspan>
<tspan x="35" dy="11">..%@@@@@@@@%.@@@@@@@@@@@@@@@@@@@@@@@@@@@@@..........</tspan>
<tspan x="35" dy="11">..@@@@@@@@@%.@@@@@%@@@@@@@@@@@@@@@@@@@@@@@..........</tspan>
<tspan x="35" dy="11">.%@@@@@@@@@..@@@@@#%@@@@@@@#%@@@@@@@@@@@@@..........</tspan>
<tspan x="35" dy="11">.%@@@@@@@@%..@@@@@@@@@@@@@@@@@@@@@@@@@@@@@..........</tspan>
<tspan x="35" dy="11">....................................................</tspan>

</text>

        <!-- Live Code/Matrix stream footer decoration -->
        <text x="35" y="295" font-family="ui-monospace,monospace" font-size="8" fill="#52525B" opacity="0.6">
          <tspan x="35" dy="0">01101001 01101110 01101001</tspan>
          <tspan x="35" dy="11">01110011 01111001 01110011</tspan>
          <tspan x="35" dy="11">LAT: 11.1271° N, 78.6569° E</tspan>
          <tspan x="35" dy="11">BUILD: STABLE_V4.2.0_PRO</tspan>
        </text>
      </g>
    </g>


    <!-- ==================== RIGHT SIDE (Professional Terminal, x: 475 to 1145) ==================== -->
    <g transform="translate(470, 35)">
      <!-- Terminal Frame -->
      <rect width="675" height="540" rx="14" fill="url(#dark-panel-grad)" stroke="rgba(255,255,255,0.08)" stroke-width="1"/>
      <rect width="675" height="540" rx="14" fill="none" stroke="url(#border-shimmer-dark)" stroke-width="1"/>

      <!-- Window Header Controls -->
      <g transform="translate(24, 22)">
        <circle cx="6" cy="6" r="5" fill="#52525B" />
        <circle cx="22" cy="6" r="5" fill="#71717A" />
        <circle cx="38" cy="6" r="5" fill="#A1A1AA" />
        <text x="60" y="9" font-family="ui-monospace,monospace" font-size="11" fill="#71717A">zsh — thirunasdev@macbook-pro:~</text>
      </g>

      <!-- Terminal Body Content -->
      <g transform="translate(32, 60)">
        <!-- Greeting -->
        <text x="0" y="16" font-family="system-ui, -apple-system, sans-serif" font-size="19" font-weight="700" fill="#FAFAFA">
          Hi 👋 I'm <tspan fill="url(#dark-accent-grad)">Thirunavukkarasu</tspan>
        </text>

        <!-- Animated Typing Title Block -->
        <g transform="translate(0, 42)">
          <rect width="210" height="26" rx="6" fill="#18181B" stroke="rgba(255,255,255,0.06)" />
          <text x="10" y="17.5" font-family="ui-monospace,monospace" font-size="11.5" fill="#D4D4D8">
            ML Engineer
            <animate attributeName="opacity" values="0;1;1;0" dur="4s" repeatCount="indefinite" />
          </text>
          <text x="10" y="17.5" font-family="ui-monospace,monospace" font-size="11.5" fill="#D4D4D8">
            MERN Stack Developer
            <animate attributeName="opacity" values="0;0;1;1;0" dur="4s" begin="4s" repeatCount="indefinite" />
          </text>
          <!-- Blinking Cursor -->
          <rect x="175" y="7" width="7" height="13" fill="#FAFAFA">
            <animate attributeName="opacity" values="1;0;1" dur="0.9s" repeatCount="indefinite" />
          </rect>
        </g>

        <!-- Sequential Bio Data -->
        <g transform="translate(0, 92)" font-family="ui-monospace,monospace" font-size="11" fill="#A1A1AA">
          <text x="0" y="0"><tspan fill="#71717A">Location:</tspan> Tamil Nadu, India</text>
          <text x="0" y="20"><tspan fill="#71717A">Education:</tspan> B.Tech Artificial Intelligence and Data Science</text>
          <text x="0" y="40"><tspan fill="#71717A">Current Focus:</tspan> <tspan fill="#FAFAFA" font-weight="600">AI Architectures &amp; Fullstack Scale</tspan></text>
          <text x="0" y="60"><tspan fill="#71717A">Portfolio:</tspan> <tspan fill="#D4D4D8" text-decoration="underline">https://techiefreelancer.netlify.app/</tspan></text>
          <text x="0" y="80"><tspan fill="#71717A">Email:</tspan> thiruasdev@gmail.com</text>
        </g>

        <!-- Skills Section with Glowing Pills -->
        <g transform="translate(0, 202)">
          <text x="0" y="0" font-family="system-ui, sans-serif" font-size="11" font-weight="600" fill="#71717A" letter-spacing="0.5">CORE_STACK</text>
          
          <g transform="translate(0, 12)">
            <!-- Pill 1: React -->
            <g transform="translate(0,0)">
              <rect width="62" height="24" rx="12" fill="#18181B" stroke="rgba(255,255,255,0.1)" />
              <text x="31" y="15.5" font-family="sans-serif" font-size="10.5" fill="#E4E4E7" text-anchor="middle">React</text>
              <animateTransform attributeName="transform" type="scale" values="1;1.04;1" dur="3s" repeatCount="indefinite" additive="sum"/>
            </g>
            <!-- Pill 2: TypeScript -->
            <g transform="translate(68,0)">
              <rect width="84" height="24" rx="12" fill="#18181B" stroke="rgba(255,255,255,0.1)" />
              <text x="42" y="15.5" font-family="sans-serif" font-size="10.5" fill="#E4E4E7" text-anchor="middle">TypeScript</text>
            </g>
            <!-- Pill 3: Python -->
            <g transform="translate(158,0)">
              <rect width="66" height="24" rx="12" fill="#18181B" stroke="rgba(255,255,255,0.1)" />
              <text x="33" y="15.5" font-family="sans-serif" font-size="10.5" fill="#E4E4E7" text-anchor="middle">Python</text>
            </g>
            <!-- Pill 4: Java -->
            <g transform="translate(230,0)">
              <rect width="52" height="24" rx="12" fill="#18181B" stroke="rgba(255,255,255,0.1)" />
              <text x="26" y="15.5" font-family="sans-serif" font-size="10.5" fill="#E4E4E7" text-anchor="middle">Java</text>
            </g>
            <!-- Pill 5: C/C++ -->
            <g transform="translate(288,0)">
              <rect width="60" height="24" rx="12" fill="#18181B" stroke="rgba(255,255,255,0.1)" />
              <text x="30" y="15.5" font-family="sans-serif" font-size="10.5" fill="#E4E4E7" text-anchor="middle">C/C++</text>
            </g>
            <!-- Pill 6: Node/Tailwind -->
            <g transform="translate(354,0)">
              <rect width="88" height="24" rx="12" fill="#18181B" stroke="rgba(255,255,255,0.1)" />
              <text x="44" y="15.5" font-family="sans-serif" font-size="10.5" fill="#E4E4E7" text-anchor="middle">TailwindCss</text>
            </g>

            <!-- Row 2 Skills -->
            <g transform="translate(0, 31)">
              <g transform="translate(0,0)"><rect width="74" height="24" rx="12" fill="#18181B" stroke="rgba(255,255,255,0.1)"/><text x="37" y="15.5" font-family="sans-serif" font-size="10.5" fill="#E4E4E7" text-anchor="middle">Firebase</text></g>
              <g transform="translate(80,0)"><rect width="80" height="24" rx="12" fill="#18181B" stroke="rgba(255,255,255,0.1)"/><text x="40" y="15.5" font-family="sans-serif" font-size="10.5" fill="#E4E4E7" text-anchor="middle">Mongodb</text></g>
              <g transform="translate(166,0)"><rect width="78" height="24" rx="12" fill="#18181B" stroke="rgba(255,255,255,0.1)"/><text x="39" y="15.5" font-family="sans-serif" font-size="10.5" fill="#E4E4E7" text-anchor="middle">Supabase</text></g>
              <g transform="translate(250,0)"><rect width="40" height="24" rx="12" fill="#18181B" stroke="rgba(255,255,255,0.1)"/><text x="20" y="15.5" font-family="sans-serif" font-size="10.5" fill="#E4E4E7" text-anchor="middle">Git</text></g>
              <g transform="translate(296,0)"><rect width="58" height="24" rx="12" fill="#18181B" stroke="rgba(255,255,255,0.1)"/><text x="29" y="15.5" font-family="sans-serif" font-size="10.5" fill="#E4E4E7" text-anchor="middle">Canva</text></g>
            </g>
          </g>
        </g>

        <!-- Social Icons Bottom Bar -->
        <g transform="translate(0, 320)">
          <line x1="0" y1="0" x2="610" y2="0" stroke="rgba(255,255,255,0.06)" />
          <g transform="translate(0, 15)">
            <!-- GitHub Icon -->
            <a href="https://github.com/Thirunavukkarasu-SD" target="_blank">
              <circle cx="14" cy="14" r="14" fill="#18181B" stroke="rgba(255,255,255,0.08)"/>
              <path d="M14 6C9.58 6 6 9.58 6 14c0 3.53 2.29 6.53 5.47 7.59.4.07.55-.17.55-.38 0-.19-.01-.82-.01-1.49-2.01.37-2.53-.49-2.69-.94-.09-.23-.48-.94-.82-1.13-.28-.15-.68-.52-.01-.53.63-.01 1.08.58 1.23.82.72 1.21 1.87.87 2.33.66.07-.52.28-.87.51-1.07-1.78-.2-3.64-.89-3.64-3.95 0-.87.31-1.59.82-2.15-.08-.2-.36-1.02.08-2.12 0 0 .67-.21 2.2.82.64-.18 1.32-.27 2-.27.68 0 1.36.09 2 .27 1.53-1.04 2.2-.82 2.2-.82.44 1.1.16 1.92.08 2.12.51.56.82 1.27.82 2.15 0 3.07-1.87 3.75-3.65 3.95.29.25.54.73.54 1.48 0 1.07-.01 1.93-.01 2.2 0 .21.15.46.55.38A8.013 8.013 0 0022 14c0-4.42-3.58-8-8-8z" fill="#FAFAFA" transform="translate(2, 2) scale(0.7)"/>
            </a>
            <!-- LinkedIn Icon -->
            <a href="https://www.linkedin.com/in/s-thirunavukkarasu-71448730a/" target="_blank">
              <circle cx="54" cy="14" r="14" fill="#18181B" stroke="rgba(255,255,255,0.08)"/>
              <path d="M19 6h-8c-1.1 0-2 .9-2 2v8c0 1.1.9 2 2 2h8c1.1 0 2-.9 2-2V8c0-1.1-.9-2-2-2zM9 13.5V10h2v3.5H9zm1-4.25c-.55 0-1-.45-1-1s.45-1 1-1 1 .45 1 1-.45 1-1 1zm9 4.25h-2v-2c0-.55-.45-1-1-1s-1 .45-1 1v2h-2V10h2v.5c.55-.75 1.5-1 2.25-1 1.25 0 2.25 1 2.25 2.25v2.25z" fill="#FAFAFA" transform="translate(42, 2) scale(0.7)"/>
            </a>
            <!-- Instagram Icon -->
            <a href="https://www.instagram.com/tk.dev.in" target="_blank">
              <circle cx="94" cy="14" r="14" fill="#18181B" stroke="rgba(255,255,255,0.08)"/>
              <path d="M14 7.5c2.3 0 2.6.01 3.5.05.85.04 1.32.18 1.63.3.41.16.7.35 1.01.66.31.31.5.6.66 1.01.12.31.26.78.3 1.63.04.9.05 1.2.05 3.5s-.01 2.6-.05 3.5c-.04.85-.18 1.32-.3 1.63-.16.41-.35.7-.66 1.01-.31.31-.6.5-1.01.66-.31.12-.78.26-1.63.3-.9.04-1.2.05-3.5.05s-2.6-.01-3.5-.05c-.85-.04-1.32-.18-1.63-.3-.41-.16-.7-.35-1.01-.66-.31-.31-.5-.6-.66-1.01-.12-.31-.26-.78-.3-1.63C7.51 16.6 7.5 16.3 7.5 14s.01-2.6.05-3.5c.04-.85.18-1.32.3-1.63.16-.41.35-.7.66-1.01.31-.31.6-.5 1.01-.66.31-.12.78-.26 1.63-.3.9-.04 1.2-.05 3.5-.05m0-1.5c-2.34 0-2.63.01-3.55.05-.92.04-1.55.19-2.1.41-.57.22-1.05.52-1.53 1-.48.48-.78.96-1 1.53-.22.55-.37 1.18-.41 2.1-.04.92-.05 1.21-.05 3.55s.01 2.63.05 3.55c.04.92.19 1.55.41 2.1.22.57.52 1.05 1 1.53.48.48.96.78 1.53 1 .55.22 1.18.37 2.1.41.92.04 1.21.05 3.55.05s2.63-.01 3.55-.05c.92-.04 1.55-.19 2.1-.41.57-.22 1.05-.52 1.53-1 .48-.48.78-.96 1-1.53.22-.55.37-1.18.41-2.1.04-.92.05-1.21.05-3.55s-.01-2.63-.05-3.55c-.04-.92-.19-1.55-.41-2.1-.22-.57-.52-1.05-1-1.53-.48-.48-.96-.78-1.53-1-.55-.22-1.18-.37-2.1-.41-.92-.04-1.21-.05-3.55-.05zm0 4.38a4.62 4.62 0 100 9.24 4.62 4.62 0 000-9.24zm0 7.74a3.12 3.12 0 110-6.24 3.12 3.12 0 010 6.24zm5.84-8.08a1.08 1.08 0 11-2.16 0 1.08 1.08 0 012.16 0z" fill="#FAFAFA" transform="translate(82, 2) scale(0.7)"/>
            </a>
          </g>
        </g>
      </g>
    </g>
  </g>
</svg>
